Coordinates
version=1
nRows=6
nColumns=63
inDegrees=yes

Units are S.I. units (second, meters, Newtons, ...)
If the header above contains a line with 'inDegrees', this indicates whether rotational values are in degrees (yes) or radians (no).

endheader
time	pelvis_tilt	pelvis_list	pelvis_rotation	pelvis_tx	pelvis_ty	pelvis_tz	hip_flexion_r	hip_adduction_r	hip_rotation_r	knee_angle_r	knee_angle_r_beta	ankle_angle_r	subtalar_angle_r	mtp_angle_r	hip_flexion_l	hip_adduction_l	hip_rotation_l	knee_angle_l	knee_angle_l_beta	ankle_angle_l	subtalar_angle_l	mtp_angle_l	L5_S1_Flex_Ext	L5_S1_Lat_Bending	L5_S1_axial_rotation	L4_L5_Flex_Ext	L4_L5_Lat_Bending	L4_L5_axial_rotation	L3_L4_Flex_Ext	L3_L4_Lat_Bending	L3_L4_axial_rotation	L2_L3_Flex_Ext	L2_L3_Lat_Bending	L2_L3_axial_rotation	L1_L2_Flex_Ext	L1_L2_Lat_Bending	L1_L2_axial_rotation	L1_T12_Flex_Ext	L1_T12_Lat_Bending	L1_T12_axial_rotation	Abs_r3	Abs_r2	Abs_r1	Abs_t1	Abs_t2	neck_flexion	neck_bending	neck_rotation	arm_flex_r	arm_add_r	arm_rot_r	elbow_flex_r	pro_sup_r	wrist_flex_r	wrist_dev_r	arm_flex_l	arm_add_l	arm_rot_l	elbow_flex_l	pro_sup_l	wrist_flex_l	wrist_dev_l
      3.64406780	      7.25033995	     -5.14074798	     89.68652809	      0.10821638	      1.00970302	      0.35066131	      1.76587428	      1.86010611	    -14.04165491	     11.54391557	      0.20147934	     39.12278622	     15.63891648	      0.00000000	      2.75187996	     -2.25530406	     -6.26590971	     14.67331376	      0.25609764	     42.03061456	      8.54814816	      0.00000000	     -0.36266477	      0.38139891	     -1.01980988	     -0.67350475	      0.50726055	     -1.08354800	     -0.59582195	      0.92733331	     -1.08354800	     -0.41448957	      0.92733331	     -0.89233365	     -0.33677051	      0.77774865	     -0.82859553	     -0.20722665	      0.59078691	     -0.76485741	     -2.59047819	      4.31446074	     -5.67187662	      0.00000000	      0.00000000	    -16.33025040	      2.37094712	     -2.80560110	    -31.57731550	    -48.89173207	    -51.55332973	     61.36429284	     84.28170119	    -12.88066832	     26.29917507	    -47.96698455	    -40.14225661	    -71.81655854	     78.74768660	     88.54610790	     -4.27894867	      2.33802696
      3.66101695	      7.07920945	     -4.98522807	     89.38247243	      0.10826380	      1.01028866	      0.34986938	      1.85784391	      1.59714731	    -13.80828152	     12.09109162	      0.21102936	     39.27512089	     15.48535295	      0.00000000	      2.41850764	     -2.00083087	     -6.23227674	     14.39738474	      0.25128177	     41.89399136	      8.05456446	      0.00000000	     -0.37994441	      0.41034072	     -1.22703670	     -0.70559477	      0.54575316	     -1.30372649	     -0.62421068	      0.99770242	     -1.30372649	     -0.43423847	      0.99770242	     -1.07365711	     -0.35281638	      0.83676679	     -0.99696732	     -0.21710024	      0.63561777	     -0.92027752	     -2.71390496	      4.64185627	     -6.82441001	      0.00000000	      0.00000000	    -16.92238684	      2.18026261	     -0.77597025	    -31.50541239	    -49.55024973	    -48.65181843	     62.24982039	     82.62479939	     -8.49191627	     25.37087866	    -50.81807302	    -39.96671962	    -70.39780151	     78.46732560	     88.71607521	     -3.28441196	      5.86263636
      3.67796610	      6.87619658	     -4.90533059	     88.96401996	      0.10846299	      1.01092345	      0.34897011	      2.03088137	      1.29901881	    -13.45436090	     12.63383438	      0.22050201	     39.38780893	     15.39731716	      0.00000000	      2.12292911	     -1.72042261	     -6.40441222	     14.03620039	      0.24497791	     41.72687002	      7.69991625	      0.00000000	     -0.38275733	      0.43847054	     -1.43150068	     -0.71081864	      0.58316582	     -1.52096948	     -0.62883202	      1.06609728	     -1.52096948	     -0.43745336	      1.06609728	     -1.25256310	     -0.35542846	      0.89412913	     -1.16309431	     -0.21870754	      0.67919087	     -1.07362551	     -2.73399736	      4.96006646	     -7.96157736	      0.00000000	      0.00000000	    -17.97116255	      2.09815250	      1.28113040	    -30.90424973	    -50.42137199	    -46.00006964	     63.56634283	     80.81221157	     -6.94413851	     24.42802169	    -52.82869651	    -39.48544517	    -69.84796584	     77.84623414	     88.77565348	     -2.78059633	      6.23312560
      3.69491525	      6.54955793	     -4.80746205	     88.65423645	      0.10884689	      1.01155485	      0.34828628	      2.19574913	      0.90227754	    -13.14208897	     13.16778186	      0.22982115	     39.54394041	     15.19154593	      0.00000000	      1.86252598	     -1.34142853	     -6.57311028	     13.69263251	      0.23898152	     41.57464414	      7.51433526	      0.00000000	     -0.39591372	      0.44724398	     -1.63116598	     -0.73525137	      0.59483449	     -1.73311385	     -0.65044665	      1.08742902	     -1.73311385	     -0.45248979	      1.08742902	     -1.42727023	     -0.36764548	      0.91201993	     -1.32532236	     -0.22622510	      0.69278093	     -1.22337448	     -2.82797210	      5.05931336	     -9.07205582	      0.00000000	      0.00000000	    -19.18371079	      2.10576805	      2.92855376	    -29.83452759	    -50.78538459	    -45.10432989	     65.10634897	     79.85234960	     -8.17726302	     23.74158099	    -53.54083569	    -38.78902661	    -70.65668028	     77.04367803	     88.78701264	     -3.30513847	      3.63219938
      3.71186441	      6.23261771	     -4.73205560	     88.40833519	      0.10919353	      1.01198807	      0.34807836	      2.45250049	      0.50721581	    -12.90697952	     13.78391244	      0.24057466	     39.73833044	     14.97509902	      0.00000000	      1.73724327	     -0.99318208	     -6.76359086	     13.48931496	      0.23543296	     41.51634940	      7.43998924	      0.00000000	     -0.42433618	      0.45373349	     -1.75533471	     -0.78803473	      0.60346554	     -1.86504313	     -0.69714192	      1.10320760	     -1.86504313	     -0.48497382	      1.10320760	     -1.53591787	     -0.39403858	      0.92525333	     -1.42620945	     -0.24246569	      0.70283317	     -1.31650103	     -3.03099092	      5.13272396	     -9.76264506	      0.00000000	      0.00000000	    -20.22121692	      2.16918756	      3.80295498	    -28.90327020	    -50.49686801	    -46.55652024	     66.45220562	     80.75895392	    -10.95500998	     23.49552045	    -52.79631150	    -38.30814380	    -72.13497587	     75.99320942	     88.77630467	     -5.01122058	     -1.27061424
      3.72881356	      5.97156073	     -4.69207417	     88.27607201	      0.10932563	      1.01215047	      0.34843394	      2.81328600	      0.15496321	    -12.73567050	     14.47781043	      0.25268546	     39.95512066	     14.72713717	      0.00000000	      1.76602685	     -0.71270838	     -6.87537714	     13.45300746	      0.23479927	     41.50239351	      7.35375275	      0.00000000	     -0.46808088	      0.46044931	     -1.83255299	     -0.86927300	      0.61239758	     -1.94708756	     -0.76901008	      1.11953645	     -1.94708756	     -0.53496964	      1.11953645	     -1.60348387	     -0.43465990	      0.93894823	     -1.48894931	     -0.26746141	      0.71323598	     -1.37441474	     -3.34345491	      5.20869467	    -10.19210998	      0.00000000	      0.00000000	    -20.93992964	      2.23471377	      3.94891706	    -27.98023867	    -49.95152087	    -49.00948364	     67.13007931	     82.65906445	    -13.69420786	     23.63007425	    -51.53399942	    -38.34267195	    -73.45055930	     74.59829203	     88.73750871	     -7.38937154	     -6.99564460
